<svg id="Logo" xmlns="http://www.w3.org/2000/svg" xmlns:xlink="http://www.w3.org/1999/xlink" viewBox="0 0 1024 1024"><defs><style>.cls-1{fill:url(#radial-gradient);}.cls-2{opacity:0.6;}.cls-3{fill:#1bf200;}.cls-4{fill:#0073db;}.cls-5{fill:#ff0009;}.cls-6{opacity:0.2;}.cls-7{fill:#1aa5da;}</style><radialGradient id="radial-gradient" cx="512" cy="512" r="512" gradientUnits="userSpaceOnUse"><stop offset="0" stop-color="#fff"/><stop offset="0.01" stop-color="#fdfdfd"/><stop offset="0.21" stop-color="silver"/><stop offset="0.4" stop-color="#8e8e8e"/><stop offset="0.58" stop-color="#666"/><stop offset="0.75" stop-color="#4a4a4a"/><stop offset="0.89" stop-color="#393939"/><stop offset="1" stop-color="#333"/></radialGradient></defs><title>logoLogo</title><g id="objects"><rect class="cls-1" width="1024" height="1024" rx="122.88" ry="122.88"/><g class="cls-2"><path class="cls-3" d="M355.65,115.7,155.46,231.27a56.41,56.41,0,0,0-28.21,48.86V511.28a56.41,56.41,0,0,0,28.21,48.86L355.65,675.71a56.41,56.41,0,0,0,56.41,0L612.24,560.14a56.41,56.41,0,0,0,28.21-48.86V280.13a56.41,56.41,0,0,0-28.21-48.86L412.06,115.7A56.41,56.41,0,0,0,355.65,115.7Z"/></g><g class="cls-2"><path class="cls-4" d="M480.09,348.29,279.91,463.86a56.41,56.41,0,0,0-28.21,48.86V743.87a56.41,56.41,0,0,0,28.21,48.86L480.09,908.3a56.41,56.41,0,0,0,56.41,0L736.69,792.73a56.41,56.41,0,0,0,28.21-48.86V512.72a56.41,56.41,0,0,0-28.21-48.86L536.5,348.29A56.41,56.41,0,0,0,480.09,348.29Z"/></g><g class="cls-2"><path class="cls-5" d="M611.94,115.7,411.76,231.27a56.41,56.41,0,0,0-28.21,48.86V511.28a56.41,56.41,0,0,0,28.21,48.86L611.94,675.71a56.41,56.41,0,0,0,56.41,0L868.54,560.14a56.41,56.41,0,0,0,28.21-48.86V280.13a56.41,56.41,0,0,0-28.21-48.86L668.35,115.7A56.41,56.41,0,0,0,611.94,115.7Z"/></g><g class="cls-6"><path class="cls-7" d="M498.45,180.65,261.55,317.43a19.7,19.7,0,0,0-9.85,17.06V608a19.7,19.7,0,0,0,9.85,17.06l236.9,136.78a19.7,19.7,0,0,0,19.7,0L755,625.09A19.7,19.7,0,0,0,764.89,608V334.48A19.7,19.7,0,0,0,755,317.43L518.14,180.65A19.7,19.7,0,0,0,498.45,180.65Z"/></g></g></svg>